<svg xmlns="http://www.w3.org/2000/svg" width="12.661" height="10.386" viewBox="0 0 12.661 10.386">
  <g id="Account" transform="translate(-5647.848 -1833.625)">
    <path id="Path_403" data-name="Path 403" d="M65,111h.742v.742H65Z" transform="translate(5584.455 1724.232)" fill="#267399"/>
    <path id="Path_404" data-name="Path 404" d="M130,111h.742v.742H130Z" transform="translate(5521.063 1724.232)" fill="#267399"/>
    <path id="Path_405" data-name="Path 405" d="M222.022,111h5.563v.742h-5.563Z" transform="translate(5431.316 1724.232)" fill="#267399"/>
    <path id="Path_406" data-name="Path 406" d="M273.5,241h3.957v.742H273.5Z" transform="translate(5381.111 1597.447)" fill="#267399"/>
    <path id="Path_407" data-name="Path 407" d="M273.5,371h3.957v.742H273.5Z" transform="translate(5381.111 1470.662)" fill="#267399"/>
    <path id="Path_408" data-name="Path 408" d="M273.5,306h3.957v.742H273.5Z" transform="translate(5381.111 1534.055)" fill="#267399"/>
    <path id="Path_409" data-name="Path 409" d="M0,46V56.386H12.661V46Zm11.919.742v2.473H.742V46.742ZM.742,55.644V49.957H11.919v5.688Z" transform="translate(5647.848 1787.625)" fill="#267399"/>
    <path id="Path_410" data-name="Path 410" d="M81.435,242.855a1.175,1.175,0,1,0-1.913,0,1.98,1.98,0,0,0-1.022,1.731v.371h3.957v-.371A1.98,1.98,0,0,0,81.435,242.855Zm-1.389-.68a.433.433,0,1,1,.433.433A.433.433,0,0,1,80.046,242.175Zm-.747,2.04a1.237,1.237,0,0,1,2.359,0Z" transform="translate(5571.289 1597.447)" fill="#267399"/>
  </g>
</svg>
