<svg xmlns="http://www.w3.org/2000/svg" viewBox="0 0 467.15 140.21"><defs><style>.cls-1{fill:#267399;}.cls-2{fill:#fff;}</style></defs><g id="Layer_2" data-name="Layer 2"><g id="Layer_1-2" data-name="Layer 1"><path class="cls-1" d="M9.7,70.5c-2.7,2.4.81,5.9,3.77,6.12a9.86,9.86,0,0,0,5.82-1,4.87,4.87,0,0,1,2.16-.42q6.71,0,13.41,0c2.25,0,4.5,0,6.75,0,1.7,0,3.52.21,5.06-.44S49.3,72,51,71.79c1.46-.15,2.22,1.44,2.71,2.29C54.84,76,55.63,78,56.78,79.92a4.46,4.46,0,0,0,5.46,1.78,6.59,6.59,0,0,0,3.12-2.76c2.12-3.17,3.33-6.59,5-9.87a3.16,3.16,0,0,1,1.14-1.37c3.3-2,6.54,6.86,7.16,8.25,1.59,3.52,3.17,7.54,6.75,10.39a4.31,4.31,0,0,0,1.83.94,4.13,4.13,0,0,0,3.06-.64,4.76,4.76,0,0,0,1.6-2c1-2.14,2.09-4.25,3.11-6.38.59-1.22.92-2.5,1.6-3.69,1-1.77,1.88-2,4-.79,3.67,2,9.65,1.37,14,1.32C120.1,75,129.85,75,140.21,75v8.88a10,10,0,0,1-10,10H93.83v36.4a10,10,0,0,1-10,10H56.36a10,10,0,0,1-10-10V93.83H10a10,10,0,0,1-10-10V56.37a10,10,0,0,1,10-10H46.39V10a10,10,0,0,1,10-10H83.85a10,10,0,0,1,10,10V46.39h36.4a10,10,0,0,1,10,10v13.9c-10.71,0-20.85,0-26.47-.11-2.57,0-5.55-.47-7.25-2-2.37-2-3.76-5.25-5.43-7.61a3.65,3.65,0,0,0-1.44-1.36,4.31,4.31,0,0,0-3.56.25,5.81,5.81,0,0,0-2.13,2.17c-.89,1.4-1.86,2.71-2.69,4.12-.47.82-1.34,2.48-3,2.25a3.43,3.43,0,0,1-2.08-1.18A10.44,10.44,0,0,1,84.09,63C82.24,57.58,80.91,52,77,47.2a4.85,4.85,0,0,0-2.74-1.91,4.92,4.92,0,0,0-3.74.86c-2.41,1.75-3.64,5-4.65,7.24s-1.79,4.47-2.66,6.71c-.75,1.93-1.16,4-2.66,5.73-.22.26-.67.53-1,.36a.57.57,0,0,1-.25-.33c-1.37-3.45-2-7-4.94-10.1A2.21,2.21,0,0,0,53.12,55a2.58,2.58,0,0,0-1.14.13c-2.61.88-4.12,3.63-5.18,5.35A40,40,0,0,1,42.51,67C40.42,69.26,37,70,33.35,70.18s-7.31.14-11,0c-2.64-.07-4.45-1.48-7-1.59A8.05,8.05,0,0,0,9.7,70.5Z"/><path class="cls-1" d="M170.47,26.78V35.6H231.7v17H170.47v18a8.75,8.75,0,0,0,8.71,8.76h69.48v17H179.18a25.69,25.69,0,0,1-25.67-25.72V26.78A25.69,25.69,0,0,1,179.18,1.06h69.48V18H179.18A8.76,8.76,0,0,0,170.47,26.78Z"/><path class="cls-1" d="M357.46,1.14v17H318.37V96.29h-17V18.11H262.3v-17Z"/><path class="cls-1" d="M466.25,1.08V96.24h-17V52.57H388.07V96.21h-17V1.06h17V35.59h61.21V1.08Z"/><rect class="cls-1" x="160.7" y="105.79" width="306.44" height="34.42" rx="4.7"/><path class="cls-2" d="M181.4,131.58v1.73H168v-19h13v1.73H170v6.74h9.81v1.71H170v7Z"/><path class="cls-2" d="M199.49,116.09h-6.66v-1.73h15.32v1.73h-6.66v17.22h-2Z"/><path class="cls-2" d="M234.44,131.58v1.73H221v-19h13v1.73H223v6.74h9.8v1.71H223v7Z"/><path class="cls-2" d="M248.84,114.36h2v17.22h10.61v1.73H248.84Z"/><path class="cls-2" d="M287.89,131.58v1.73H274.48v-19h13v1.73h-11v6.74h9.8v1.71h-9.8v7Z"/><path class="cls-2" d="M318.13,114.36v19h-2v-8.75H304.29v8.75h-2v-19h2v8.44h11.86v-8.44Z"/><path class="cls-2" d="M347.39,131.58v1.73H334v-19h13v1.73H336v6.74h9.8v1.71H336v7Z"/><path class="cls-2" d="M373.68,128.25H363.12l-2.27,5.06h-2.08l8.66-19h2l8.66,19H376Zm-.73-1.63-4.55-10.18-4.54,10.18Z"/><path class="cls-2" d="M390.9,114.36h2v17.22h10.61v1.73H390.9Z"/><path class="cls-2" d="M418.46,116.09H411.8v-1.73h15.33v1.73h-6.66v17.22h-2Z"/><path class="cls-2" d="M455.85,114.36v19h-2v-8.75H442v8.75h-2v-19h2v8.44h11.86v-8.44Z"/></g></g></svg>