<svg xmlns="http://www.w3.org/2000/svg" width="10.614" height="10.614" viewBox="0 0 10.614 10.614">
  <g id="Help" transform="translate(-5648 -1871)">
    <g id="Group_469" data-name="Group 469" transform="translate(5648 1871)">
      <g id="Group_468" data-name="Group 468" transform="translate(0 0)">
        <path id="Path_400" data-name="Path 400" d="M10.575,9.611,9.846,7.491A5.185,5.185,0,1,0,5.193,10.38H5.2a5.206,5.206,0,0,0,2.293-.537l2.121.729a.762.762,0,0,0,.248.042.757.757,0,0,0,.713-1Zm-.625.335a.122.122,0,0,1-.131.03L7.572,9.2a.315.315,0,0,0-.249.019,4.559,4.559,0,1,1,1.9-1.9.315.315,0,0,0-.019.249l.772,2.247A.121.121,0,0,1,9.949,9.946Z" transform="translate(-0.003 0)" fill="#267399"/>
      </g>
    </g>
    <g id="Group_471" data-name="Group 471" transform="translate(5652.824 1878.52)">
      <g id="Group_470" data-name="Group 470">
        <path id="Path_401" data-name="Path 401" d="M233.034,362.748a.315.315,0,1,0,.315.315A.318.318,0,0,0,233.034,362.748Z" transform="translate(-232.719 -362.748)" fill="#267399"/>
      </g>
    </g>
    <g id="Group_473" data-name="Group 473" transform="translate(5651.573 1873.646)">
      <g id="Group_472" data-name="Group 472">
        <path id="Path_402" data-name="Path 402" d="M173.96,127.674a1.567,1.567,0,0,0-1.565,1.565.315.315,0,0,0,.629,0,.936.936,0,1,1,.936.936.315.315,0,0,0-.315.315v1.283a.315.315,0,0,0,.629,0v-1a1.566,1.566,0,0,0-.315-3.1Z" transform="translate(-172.395 -127.674)" fill="#267399"/>
      </g>
    </g>
  </g>
</svg>
