<svg xmlns="http://www.w3.org/2000/svg" width="19.184" height="25.572" viewBox="0 0 19.184 25.572">
  <g id="_04" data-name="04" transform="translate(-82.983 -293.911)">
    <path id="Path_494" data-name="Path 494" d="M87.235,296.049c0-.356-.012-.656,0-.954a1.076,1.076,0,1,1,2.139.02c.005.284,0,.567,0,.894h2.148c0-.343-.011-.678,0-1.013a1.048,1.048,0,1,1,2.094-.006c.014.321,0,.642,0,1.013h2.148c0-.325-.01-.659,0-.992a1.062,1.062,0,0,1,2.121-.1,11.141,11.141,0,0,1,.007,1.14c.695,0,1.318-.007,1.941,0a2.128,2.128,0,0,1,2.321,2.351q0,9.362,0,18.724a2.148,2.148,0,0,1-2.333,2.351q-7.25,0-14.5,0a2.148,2.148,0,0,1-2.344-2.34q-.008-9.391,0-18.781a2.135,2.135,0,0,1,2.312-2.31C85.92,296.041,86.543,296.049,87.235,296.049Zm2.165,2.139c-.089.861.258,2.037-1.038,2.073-1.382.039-1.053-1.194-1.162-2.054H85.164v19.084H99.983v-19.1H97.9a10.663,10.663,0,0,1-.007,1.1,1.062,1.062,0,0,1-2.122-.09c-.014-.333,0-.668,0-1H93.625c0,.367.011.688,0,1.008a1.049,1.049,0,1,1-2.1.006c-.017-.335,0-.671,0-1.032Z" transform="translate(0)" fill="#658eec"/>
    <path id="Path_495" data-name="Path 495" d="M131.162,415.429v2.063H120.546v-2.063Z" transform="translate(-33.275 -107.643)" fill="#658eec"/>
    <path id="Path_496" data-name="Path 496" d="M131.1,452.967V455H120.478v-2.036Z" transform="translate(-33.214 -140.896)" fill="#658eec"/>
    <path id="Path_497" data-name="Path 497" d="M120.606,378.047h8.457v2.086h-8.457Z" transform="translate(-33.328 -74.53)" fill="#658eec"/>
  </g>
</svg>
