<svg xmlns="http://www.w3.org/2000/svg" width="15.177" height="11.432" viewBox="0 0 15.177 11.432">
  <g id="visibility" transform="translate(0.101 -68.787)">
    <path id="Path_469" data-name="Path 469" d="M7.488,68.887A7.952,7.952,0,0,0,.025,74.352a.47.47,0,0,0,0,.3,7.952,7.952,0,0,0,7.463,5.465,7.952,7.952,0,0,0,7.463-5.465.47.47,0,0,0,0-.3,7.952,7.952,0,0,0-7.463-5.465Zm0,10.3A7.01,7.01,0,0,1,.964,74.5a7.01,7.01,0,0,1,6.524-4.68,7.01,7.01,0,0,1,6.524,4.68A7.01,7.01,0,0,1,7.488,79.183Z" transform="translate(0)" fill="#267399" stroke="#fff" stroke-width="0.2"/>
    <path id="Path_470" data-name="Path 470" d="M175.032,172.224a2.808,2.808,0,1,0,2.808,2.808A2.811,2.811,0,0,0,175.032,172.224Zm0,4.68a1.872,1.872,0,1,1,1.872-1.872A1.874,1.874,0,0,1,175.032,176.9Z" transform="translate(-167.544 -100.529)" fill="#267399" stroke="#fff" stroke-width="0.2"/>
  </g>
</svg>
