<svg id="pdf" xmlns="http://www.w3.org/2000/svg" width="22.697" height="24.086" viewBox="0 0 22.697 24.086">
  <g id="Group_479" data-name="Group 479">
    <g id="Group_478" data-name="Group 478" transform="translate(0)">
      <path id="Path_411" data-name="Path 411" d="M37.336,6.518,31.2.142A.463.463,0,0,0,30.866,0H21.72a1.858,1.858,0,0,0-1.856,1.855V8.338H16.158a1.39,1.39,0,0,0-1.389,1.388v6.95a1.39,1.39,0,0,0,1.389,1.388h3.706v4.169a1.856,1.856,0,0,0,1.856,1.852H35.61a1.856,1.856,0,0,0,1.856-1.851V6.839A.463.463,0,0,0,37.336,6.518ZM30.981,1.25l5.037,5.234H30.981ZM16.158,17.138a.463.463,0,0,1-.462-.462V9.726a.463.463,0,0,1,.462-.462H28.666a.463.463,0,0,1,.462.462v6.95a.463.463,0,0,1-.462.462Zm20.382,5.1a.928.928,0,0,1-.93.925H21.72a.929.929,0,0,1-.93-.926V18.065h7.875a1.39,1.39,0,0,0,1.389-1.388V9.726a1.39,1.39,0,0,0-1.389-1.388H20.791V1.855a.931.931,0,0,1,.93-.929h8.334V6.948a.463.463,0,0,0,.463.463h6.022V22.235Z" transform="translate(-14.769)" fill="#267399"/>
    </g>
  </g>
  <g id="Group_481" data-name="Group 481" transform="translate(2.72 11.307)">
    <g id="Group_480" data-name="Group 480" transform="translate(0)">
      <path id="Path_412" data-name="Path 412" d="M75.413,240.8a1.043,1.043,0,0,0-.573-.389,4.675,4.675,0,0,0-.955-.06H72.6v3.979h.8v-1.5h.524a4.586,4.586,0,0,0,.833-.057,1.164,1.164,0,0,0,.417-.189,1.091,1.091,0,0,0,.338-.392,1.3,1.3,0,0,0,.133-.616A1.235,1.235,0,0,0,75.413,240.8Zm-.688,1.1a.527.527,0,0,1-.251.2,2.077,2.077,0,0,1-.635.062H73.4v-1.129h.388a3.855,3.855,0,0,1,.578.027.555.555,0,0,1,.323.176.514.514,0,0,1,.128.358A.535.535,0,0,1,74.725,241.89Z" transform="translate(-72.596 -240.346)" fill="#267399"/>
    </g>
  </g>
  <g id="Group_483" data-name="Group 483" transform="translate(6.425 11.307)">
    <g id="Group_482" data-name="Group 482" transform="translate(0)">
      <path id="Path_413" data-name="Path 413" d="M154.551,241.433a1.738,1.738,0,0,0-.38-.645,1.331,1.331,0,0,0-.6-.366,2.869,2.869,0,0,0-.757-.076h-1.468v3.979h1.512a2.429,2.429,0,0,0,.711-.084,1.412,1.412,0,0,0,.565-.318,1.755,1.755,0,0,0,.426-.7,2.615,2.615,0,0,0,.122-.847A2.936,2.936,0,0,0,154.551,241.433Zm-.782,1.634a.842.842,0,0,1-.21.384.742.742,0,0,1-.324.166,2.189,2.189,0,0,1-.486.038h-.6v-2.635h.361a3.635,3.635,0,0,1,.659.038.764.764,0,0,1,.372.187.91.91,0,0,1,.228.385,2.376,2.376,0,0,1,.081.708A2.6,2.6,0,0,1,153.77,243.067Z" transform="translate(-151.346 -240.346)" fill="#267399"/>
    </g>
  </g>
  <g id="Group_485" data-name="Group 485" transform="translate(10.447 11.307)">
    <g id="Group_484" data-name="Group 484">
      <path id="Path_414" data-name="Path 414" d="M239.574,241.019v-.673h-2.728v3.979h.8v-1.691h1.661v-.673h-1.661v-.942Z" transform="translate(-236.846 -240.346)" fill="#267399"/>
    </g>
  </g>
</svg>
