<svg xmlns="http://www.w3.org/2000/svg" width="13.792" height="13.792" viewBox="0 0 13.792 13.792">
  <g id="Reset_Password" data-name="Reset Password" transform="translate(-5647.643 -1799.642)">
    <circle id="Ellipse_137" data-name="Ellipse 137" cx="0.5" cy="0.5" r="0.5" transform="translate(5656 1808)" fill="#267399" stroke="#fff" stroke-width="0.3"/>
    <path id="Path_398" data-name="Path 398" d="M6.272,12.439H2.108a1.055,1.055,0,0,1-1.054-1.054V7.063A1.055,1.055,0,0,1,2.108,6.009H9.7a1.055,1.055,0,0,1,1.054,1.054V8.117a.527.527,0,1,0,1.054,0V7.063A2.11,2.11,0,0,0,9.7,4.955H9.064V3.1A3.133,3.133,0,0,0,5.9,0,3.133,3.133,0,0,0,2.74,3.1V4.955H2.108A2.11,2.11,0,0,0,0,7.063v4.322a2.11,2.11,0,0,0,2.108,2.108H6.272a.527.527,0,1,0,0-1.054ZM3.794,3.1A2.078,2.078,0,0,1,5.9,1.055,2.078,2.078,0,0,1,8.01,3.1V4.955H3.794V3.1Z" transform="translate(5647.793 1799.791)" fill="#267399" stroke="#fff" stroke-width="0.3"/>
    <path id="Path_399" data-name="Path 399" d="M269.38,322.1a.527.527,0,0,0-.735.122l-2.6,3.629a.3.3,0,0,1-.433.023l-1.679-1.638a.527.527,0,1,0-.736.754l1.682,1.641,0,0a1.359,1.359,0,0,0,.935.374q.045,0,.089,0a1.359,1.359,0,0,0,.966-.5l.018-.023,2.608-3.643A.527.527,0,0,0,269.38,322.1Z" transform="translate(5391.684 1486.278)" fill="#267399" stroke="#fff" stroke-width="0.3"/>
    <circle id="Ellipse_138" data-name="Ellipse 138" cx="0.5" cy="0.5" r="0.5" transform="translate(5654 1808)" fill="#267399" stroke="#fff" stroke-width="0.3"/>
    <circle id="Ellipse_139" data-name="Ellipse 139" cx="0.5" cy="0.5" r="0.5" transform="translate(5650 1808)" fill="#267399" stroke="#fff" stroke-width="0.3"/>
    <ellipse id="Ellipse_140" data-name="Ellipse 140" cy="0.5" ry="0.5" transform="translate(5653 1808)" fill="#267399" stroke="#fff" stroke-width="0.3"/>
  </g>
</svg>
