<svg xmlns="http://www.w3.org/2000/svg" width="13.258" height="13.24" viewBox="0 0 13.258 13.24">
  <g id="upload-02" transform="translate(0 -0.358)">
    <g id="Group_729" data-name="Group 729" transform="translate(0 8.445)">
      <g id="Group_728" data-name="Group 728">
        <path id="Path_510" data-name="Path 510" d="M12.223,312.642v3.6a.518.518,0,0,1-.518.518H1.554a.518.518,0,0,1-.518-.518v-3.6H0v3.6A1.555,1.555,0,0,0,1.554,317.8H11.7a1.555,1.555,0,0,0,1.554-1.554v-3.6Z" transform="translate(0 -312.642)" fill="#267399"/>
      </g>
    </g>
    <g id="Group_731" data-name="Group 731" transform="translate(3.411 0.358)">
      <g id="Group_730" data-name="Group 730">
        <path id="Path_511" data-name="Path 511" d="M134.934.358l-3.218,3.218.732.732,1.968-1.968v8.072h1.036V2.341l1.968,1.968.732-.732Z" transform="translate(-131.716 -0.358)" fill="#267399"/>
      </g>
    </g>
  </g>
</svg>
